PathFileType  4	(X/Y/Z) C:\Users\antoi\Documents\MyRepositories\mobilecap\ResultsAnalysis
DataRate	CameraRate	NumFrames	NumMarkers	Units	OrigDataRate	OrigDataStartFrame	OrigNumFrames
100.0	100.0	4	55	mm	100.0	65	517
Frame#	Time	r_knee			r_shank_antsup			r_ankle			r_calc			r_5meta			r_toe			L_knee			L_shank_antsup			L_ankle			L_calc			L_5meta			L_toe			r_mknee			r_mankle			L_mknee			L_mankle			r_sh2			r_sh3			r_sh4			L_sh2			L_sh3			r_thigh1			r_thigh2			r_thigh3			r_thigh4			r_thigh5			L_thigh1			L_thigh2			L_thigh3			L_thigh4			r.ASIS			r.PSIS			L.ASIS			L.PSIS			C7			R_Shoulder			L_Shoulder			R_Sternum			L_Sternum			R_humerus			R_elbow_med			R_elbow_lat			R_forearm			R_wrist_radius			R_wrist_ulna			L_humerus			L_elbow_med			L_elbow_lat			L_forearm			L_wrist_radius			L_wrist_ulna			R_HJC			L_HJC			R_HJC_reg			L_HJC_reg			
		X1	Y1	Z1	X2	Y2	Z2	X3	Y3	Z3	X4	Y4	Z4	X5	Y5	Z5	X6	Y6	Z6	X7	Y7	Z7	X8	Y8	Z8	X9	Y9	Z9	X10	Y10	Z10	X11	Y11	Z11	X12	Y12	Z12	X13	Y13	Z13	X14	Y14	Z14	X15	Y15	Z15	X16	Y16	Z16	X17	Y17	Z17	X18	Y18	Z18	X19	Y19	Z19	X20	Y20	Z20	X21	Y21	Z21	X22	Y22	Z22	X23	Y23	Z23	X24	Y24	Z24	X25	Y25	Z25	X26	Y26	Z26	X27	Y27	Z27	X28	Y28	Z28	X29	Y29	Z29	X30	Y30	Z30	X31	Y31	Z31	X32	Y32	Z32	X33	Y33	Z33	X34	Y34	Z34	X35	Y35	Z35	X36	Y36	Z36	X37	Y37	Z37	X38	Y38	Z38	X39	Y39	Z39	X40	Y40	Z40	X41	Y41	Z41	X42	Y42	Z42	X43	Y43	Z43	X44	Y44	Z44	X45	Y45	Z45	X46	Y46	Z46	X47	Y47	Z47	X48	Y48	Z48	X49	Y49	Z49	X50	Y50	Z50	X51	Y51	Z51	X52	Y52	Z52	X53	Y53	Z53	X54	Y54	Z54	X55	Y55	Z55	

65	0.64000000	-219.62633	500.18504	-434.60953	-192.23618	409.52876	-437.99953	-283.93390	93.50315	-433.52323	-343.49862	57.62890	-478.15249	-162.72879	43.67208	-389.82980	-129.60638	70.39291	-446.20751	-220.26623	503.71654	-765.48550	-191.51861	420.70511	-758.96518	-274.96640	97.86069	-773.06282	-345.32940	49.97988	-725.39384	-167.72266	41.04595	-813.61921	-121.19265	65.00222	-756.89082	-234.36689	483.28773	-551.82128	-261.50144	110.90731	-509.77357	-230.90240	490.72875	-646.86021	-255.18572	103.74918	-691.82863	-204.76140	296.54699	-434.72560	-254.64103	415.84151	-395.30584	-273.35565	302.93274	-388.84488	-270.30726	443.54596	-801.66554	-285.17767	321.53919	-810.44620	-147.87113	779.75796	-430.82925	-149.25044	668.48877	-436.15017	-202.59353	642.34550	-404.46452	-258.82422	776.54420	-410.27381	-253.45936	660.85750	-418.97019	-130.17472	748.89996	-766.39034	-128.02617	609.28294	-750.36452	-233.27525	744.90646	-808.52914	-234.17152	612.65653	-779.94904	-114.13021	966.11589	-477.98956	-317.87189	1010.46434	-565.70740	-111.29049	964.60151	-733.46510	-314.26953	1010.24915	-658.72429	-285.32627	1463.07576	-612.35172	-222.93950	1432.14486	-443.47607	-196.29555	1433.99617	-762.81366	-158.57461	1392.01310	-580.80685	-158.57108	1394.25812	-626.69070	-183.46611	1301.67447	-392.58119	-271.10768	1099.37868	-424.78849	-254.48280	1111.29380	-359.43333	-193.06075	1050.56782	-344.60033	-134.94863	890.97771	-380.29773	-161.68738	889.90266	-337.84280	-165.13836	1292.58177	-816.89757	-249.61185	1095.77387	-782.80554	-215.84635	1106.44777	-854.91567	-161.17428	1051.57740	-855.42691	-109.40649	882.37709	-821.48678	-135.42387	883.25569	-867.06814	-203.22556	884.04705	-506.15445	-198.08083	883.59748	-695.64659	-193.19034	892.58213	-516.99324	-186.66467	892.19229	-685.49370	
66	0.65000000	-219.60243	500.20155	-434.60954	-192.19850	409.51672	-438.02903	-283.93129	93.45875	-433.54292	-343.48359	57.63116	-478.17552	-162.70510	43.60602	-389.86446	-129.59139	70.37414	-446.20672	-220.26394	503.69625	-765.49727	-191.52164	420.67795	-758.95622	-274.96780	97.84324	-773.07719	-345.31402	49.96933	-725.41514	-167.72275	41.04060	-813.62609	-121.20281	64.98950	-756.91767	-234.36636	483.28765	-551.82045	-261.50705	110.88295	-509.77953	-230.89638	490.72215	-646.85560	-255.18303	103.74962	-691.82488	-204.73073	296.50541	-434.77203	-254.61842	415.83477	-395.27967	-273.31722	302.85623	-388.90718	-270.28985	443.54713	-801.67469	-285.18260	321.53028	-810.46683	-147.88997	779.74239	-430.83544	-149.24138	668.43691	-436.15329	-202.62282	642.31088	-404.52334	-258.81805	776.54864	-410.26260	-253.46352	660.86307	-418.99894	-130.15998	748.86594	-766.31097	-128.01145	609.26764	-750.35987	-233.27469	744.89162	-808.52414	-234.17093	612.63295	-779.94551	-114.10910	966.11833	-478.02313	-317.87927	1010.45807	-565.69844	-111.28853	964.61014	-733.58851	-314.26944	1010.21922	-658.70557	-285.30212	1463.04085	-612.37591	-222.89300	1432.14488	-443.53012	-196.28927	1433.98157	-762.85791	-158.55895	1392.02217	-580.83431	-158.56485	1394.26514	-626.69663	-183.42747	1301.65558	-392.60026	-271.06673	1099.36900	-424.76954	-254.45329	1111.32068	-359.41494	-193.04246	1050.57924	-344.60202	-134.89259	891.08483	-380.13985	-161.65775	889.89656	-337.86227	-165.13987	1292.56109	-816.91198	-249.62208	1095.77340	-782.80730	-215.86625	1106.41828	-854.92314	-161.19537	1051.55552	-855.41838	-109.42123	882.35282	-821.51169	-135.45680	883.22693	-867.07750	-203.18142	884.03840	-506.19355	-198.08669	883.59644	-695.68706	-193.19683	892.58667	-517.03074	-186.65464	892.15376	-685.58963	
67	0.66000000	-219.55650	500.21551	-434.59165	-192.19828	409.50491	-438.04272	-283.86510	93.43535	-433.52731	-343.45796	57.62545	-478.23018	-162.65603	43.57059	-389.98024	-129.57954	70.34940	-446.23246	-220.25740	503.66960	-765.48706	-191.51891	420.67156	-758.97179	-274.95006	97.81114	-773.06733	-345.34575	49.96141	-725.43237	-167.73220	41.02512	-813.62074	-121.20606	64.98576	-756.94556	-234.35938	483.27767	-551.81770	-261.50871	110.86579	-509.78421	-230.89196	490.71668	-646.85379	-255.17804	103.75416	-691.82892	-204.69866	296.47159	-434.83473	-254.62033	415.88070	-395.22028	-273.29442	302.80327	-388.93822	-270.26759	443.55539	-801.69495	-285.16702	321.52494	-810.46760	-147.89446	779.73754	-430.83921	-149.23830	668.43616	-436.12589	-202.65796	642.30997	-404.55082	-258.81031	776.53248	-410.27977	-253.47723	660.86519	-419.00697	-130.13630	748.79351	-766.22577	-127.99958	609.25858	-750.35754	-233.27028	744.87986	-808.49242	-234.16784	612.61366	-779.94625	-114.08223	966.12701	-478.01403	-317.88247	1010.41914	-565.65630	-111.28168	964.60970	-733.68531	-314.28064	1010.19090	-658.67064	-285.29313	1463.03176	-612.39200	-222.85536	1432.14447	-443.56172	-196.27510	1433.96218	-762.88378	-158.54978	1392.02610	-580.83960	-158.61504	1394.21866	-626.79102	-183.38633	1301.66127	-392.63992	-271.04011	1099.38651	-424.73977	-254.42144	1111.32635	-359.45137	-193.02939	1050.58661	-344.59685	-134.87521	891.03010	-380.22110	-161.61528	889.90523	-337.85271	-165.15548	1292.54437	-816.94792	-249.62136	1095.76066	-782.84799	-215.88270	1106.39098	-854.92960	-161.21155	1051.54715	-855.47293	-109.45909	882.34295	-821.53544	-135.50366	883.18681	-867.07713	-203.12972	884.02402	-506.20094	-198.08275	883.58656	-695.69575	-193.16214	892.52821	-517.04033	-186.63217	892.11438	-685.66958	
68	0.67000000	-219.54780	500.21259	-434.59275	-192.21827	409.49805	-438.03935	-283.82719	93.48376	-433.45632	-343.45977	57.62824	-478.24167	-162.64748	43.64167	-390.01887	-129.58612	70.34412	-446.25179	-220.24156	503.63547	-765.45616	-191.51265	420.68925	-759.00797	-274.96733	97.82652	-773.04000	-345.39475	49.96374	-725.41508	-167.73448	41.01188	-813.62320	-121.19407	64.99143	-756.94149	-234.36401	483.28429	-551.81954	-261.50446	110.85477	-509.78430	-230.89224	490.71731	-646.85289	-255.17767	103.74939	-691.83049	-204.69107	296.45763	-434.85488	-254.63816	415.92767	-395.16436	-273.29724	302.81553	-388.91174	-270.26296	443.53807	-801.69814	-285.14418	321.50607	-810.45076	-147.94284	779.68359	-430.82361	-149.23039	668.50546	-436.09429	-202.64641	642.34848	-404.49602	-258.79665	776.52928	-410.29391	-253.48280	660.89123	-418.98763	-130.13473	748.77045	-766.24594	-127.99854	609.24713	-750.36134	-233.26839	744.86618	-808.44788	-234.16507	612.60556	-779.94849	-114.05786	966.14070	-477.99301	-317.85676	1010.40048	-565.59009	-111.25805	964.58061	-733.63482	-314.27932	1010.17695	-658.66050	-285.25174	1463.06192	-612.44519	-222.82259	1432.16526	-443.56201	-196.24197	1433.94215	-762.91982	-158.53722	1392.06001	-580.86293	-158.63196	1394.19752	-626.86477	-183.34511	1301.67116	-392.67247	-271.03909	1099.44374	-424.71414	-254.38425	1111.31778	-359.52066	-193.01467	1050.60339	-344.61681	-134.88590	890.87157	-380.47417	-161.58507	889.93713	-337.82463	-165.14467	1292.49874	-816.95189	-249.63407	1095.74986	-782.82348	-215.89523	1106.36916	-854.93258	-161.22224	1051.53131	-855.54005	-109.49846	882.31197	-821.54256	-135.54889	883.15755	-867.08776	-203.10192	884.02714	-506.14970	-198.06254	883.56303	-695.64464	-193.10201	892.51370	-516.99469	-186.62082	892.10870	-685.60654	
